<svg xmlns="http://www.w3.org/2000/svg" xmlns:xlink="http://www.w3.org/1999/xlink" width="1080" zoomAndPan="magnify" viewBox="0 0 810 809.999993" height="1080" preserveAspectRatio="xMidYMid meet" version="1.0"><defs><clipPath id="8e8ed5a75d"><path d="M 81 258.8125 L 259 258.8125 L 259 548.617188 L 81 548.617188 Z M 81 258.8125 " clip-rule="nonzero"/></clipPath><clipPath id="349ed87d64"><path d="M 81 341.445312 L 113.347656 341.445312 L 113.347656 258.8125 L 199.199219 258.8125 L 199.199219 341.445312 L 242.023438 341.445312 L 242.023438 412 L 199.199219 412 L 199.199219 451.527344 C 199.035156 457.640625 199.972656 463.753906 201.988281 469.527344 C 203.917969 474.4375 208.902344 477.4375 214.140625 476.84375 C 217.660156 476.886719 221.117188 476.011719 224.171875 474.277344 L 229.589844 470.535156 L 258.492188 531.875 C 254.695312 534.011719 250.730469 535.855469 246.636719 537.367188 C 238.503906 540.484375 230.136719 542.929688 221.605469 544.683594 C 210.625 547.101562 199.40625 548.257812 188.160156 548.125 C 168.707031 549.015625 149.609375 542.769531 134.445312 530.554688 C 120.394531 518.550781 113.363281 500.035156 113.363281 475.003906 L 113.363281 412 L 81 412 Z M 81 341.445312 " clip-rule="nonzero"/></clipPath><clipPath id="08f61abaa5"><path d="M 0 0.8125 L 177.71875 0.8125 L 177.71875 290 L 0 290 Z M 0 0.8125 " clip-rule="nonzero"/></clipPath><clipPath id="1980b91ae6"><path d="M 0 83.445312 L 32.347656 83.445312 L 32.347656 0.8125 L 118.199219 0.8125 L 118.199219 83.445312 L 161.023438 83.445312 L 161.023438 154 L 118.199219 154 L 118.199219 193.527344 C 118.035156 199.640625 118.972656 205.753906 120.988281 211.527344 C 122.917969 216.4375 127.902344 219.4375 133.140625 218.84375 C 136.660156 218.886719 140.117188 218.011719 143.171875 216.277344 L 148.589844 212.535156 L 177.492188 273.875 C 173.695312 276.011719 169.730469 277.855469 165.636719 279.367188 C 157.503906 282.484375 149.136719 284.929688 140.605469 286.683594 C 129.625 289.101562 118.40625 290.257812 107.160156 290.125 C 87.707031 291.015625 68.609375 284.769531 53.445312 272.554688 C 39.394531 260.550781 32.363281 242.035156 32.363281 217.003906 L 32.363281 154 L 0 154 Z M 0 83.445312 " clip-rule="nonzero"/></clipPath><clipPath id="7985f8fe4d"><rect x="0" width="178" y="0" height="291"/></clipPath><clipPath id="e546063c90"><path d="M 277.375 263.613281 L 364.476562 263.613281 L 364.476562 547.523438 L 277.375 547.523438 Z M 277.375 263.613281 " clip-rule="nonzero"/></clipPath><clipPath id="701e4b662b"><path d="M 0.375 0.613281 L 87.476562 0.613281 L 87.476562 284.523438 L 0.375 284.523438 Z M 0.375 0.613281 " clip-rule="nonzero"/></clipPath><clipPath id="907ced947e"><rect x="0" width="88" y="0" height="285"/></clipPath><clipPath id="e3dfcebb4f"><path d="M 380.109375 260 L 630 260 L 630 550 L 380.109375 550 Z M 380.109375 260 " clip-rule="nonzero"/></clipPath><clipPath id="c92824b4e9"><path d="M 503.945312 482.445312 C 511.070312 482.609375 518.101562 480.828125 524.289062 477.328125 C 530.136719 473.988281 534.941406 469.109375 538.191406 463.203125 C 544.824219 450.886719 544.824219 436.0625 538.191406 423.746094 C 534.914062 417.828125 530.121094 412.902344 524.289062 409.472656 C 518.117188 405.882812 511.082031 404.058594 503.945312 404.207031 C 489.96875 403.984375 477.03125 411.507812 470.277344 423.746094 C 463.542969 436.035156 463.542969 450.902344 470.277344 463.203125 C 473.527344 469.078125 478.304688 473.960938 484.109375 477.328125 C 490.132812 480.800781 496.988281 482.566406 503.945312 482.445312 M 476.273438 549.855469 C 458.097656 550.40625 440.1875 545.285156 425.039062 535.210938 C 410.761719 525.402344 399.367188 511.960938 392.023438 496.277344 C 384.21875 479.804688 380.226562 461.761719 380.390625 443.511719 C 380.226562 425.289062 384.203125 407.277344 392.023438 390.820312 C 399.382812 375.109375 410.761719 361.621094 425.039062 351.738281 C 440.171875 341.648438 458.082031 336.53125 476.273438 337.09375 C 487.285156 336.914062 498.234375 338.695312 508.621094 342.359375 C 516.988281 345.152344 524.839844 349.335938 531.828125 354.734375 C 536.738281 358.414062 540.625 363.28125 543.179688 368.863281 L 543.179688 260.097656 L 629.757812 260.097656 L 629.757812 544.011719 L 543.90625 544.011719 L 543.90625 513.84375 C 539.722656 520.714844 534.277344 526.753906 527.878906 531.636719 C 520.699219 537.304688 512.671875 541.828125 504.09375 545.035156 C 495.191406 548.285156 485.769531 549.929688 476.289062 549.871094 " clip-rule="nonzero"/></clipPath><clipPath id="dda34e81f6"><path d="M 0.160156 0 L 249.761719 0 L 249.761719 290 L 0.160156 290 Z M 0.160156 0 " clip-rule="nonzero"/></clipPath><clipPath id="95a04903c8"><path d="M 123.945312 222.445312 C 131.070312 222.609375 138.101562 220.828125 144.289062 217.328125 C 150.136719 213.988281 154.941406 209.109375 158.191406 203.203125 C 164.824219 190.886719 164.824219 176.0625 158.191406 163.746094 C 154.914062 157.828125 150.121094 152.902344 144.289062 149.472656 C 138.117188 145.882812 131.082031 144.058594 123.945312 144.207031 C 109.96875 143.984375 97.03125 151.507812 90.277344 163.746094 C 83.542969 176.035156 83.542969 190.902344 90.277344 203.203125 C 93.527344 209.078125 98.304688 213.960938 104.109375 217.328125 C 110.132812 220.800781 116.988281 222.566406 123.945312 222.445312 M 96.273438 289.855469 C 78.097656 290.40625 60.1875 285.285156 45.039062 275.210938 C 30.761719 265.402344 19.367188 251.960938 12.023438 236.277344 C 4.21875 219.804688 0.226562 201.761719 0.390625 183.511719 C 0.226562 165.289062 4.203125 147.277344 12.023438 130.820312 C 19.382812 115.109375 30.761719 101.621094 45.039062 91.738281 C 60.171875 81.648438 78.082031 76.53125 96.273438 77.09375 C 107.285156 76.914062 118.234375 78.695312 128.621094 82.359375 C 136.988281 85.152344 144.839844 89.335938 151.828125 94.734375 C 156.738281 98.414062 160.625 103.28125 163.179688 108.863281 L 163.179688 0.0976562 L 249.757812 0.0976562 L 249.757812 284.011719 L 163.90625 284.011719 L 163.90625 253.84375 C 159.722656 260.714844 154.277344 266.753906 147.878906 271.636719 C 140.699219 277.304688 132.671875 281.828125 124.09375 285.035156 C 115.191406 288.285156 105.769531 289.929688 96.289062 289.871094 " clip-rule="nonzero"/></clipPath><clipPath id="a2bad43773"><rect x="0" width="250" y="0" height="290"/></clipPath><clipPath id="238d2d77ba"><path d="M 640 466 L 721.640625 466 L 721.640625 547.800781 L 640 547.800781 Z M 640 466 " clip-rule="nonzero"/></clipPath><clipPath id="e6ac49e8c0"><path d="M 681.039062 547.4375 C 658.753906 547.394531 640.648438 529.394531 640.488281 507.109375 C 640.382812 496.335938 644.671875 485.980469 652.34375 478.410156 C 665.175781 465.160156 685.429688 462.429688 701.308594 471.824219 C 707.289062 475.472656 712.300781 480.488281 715.9375 486.453125 C 725.375 502.257812 722.75 522.480469 709.574219 535.34375 C 702.0625 543.136719 691.691406 547.496094 680.875 547.421875 Z M 681.039062 547.4375 " clip-rule="nonzero"/></clipPath><clipPath id="cb56099fb6"><path d="M 0.320312 0 L 81.640625 0 L 81.640625 81.679688 L 0.320312 81.679688 Z M 0.320312 0 " clip-rule="nonzero"/></clipPath><clipPath id="6c1c9d77c2"><path d="M 41.039062 81.4375 C 18.753906 81.394531 0.648438 63.394531 0.488281 41.109375 C 0.382812 30.335938 4.671875 19.980469 12.34375 12.410156 C 25.175781 -0.839844 45.429688 -3.570312 61.308594 5.824219 C 67.289062 9.472656 72.300781 14.488281 75.9375 20.453125 C 85.375 36.257812 82.75 56.480469 69.574219 69.34375 C 62.0625 77.136719 51.691406 81.496094 40.875 81.421875 Z M 41.039062 81.4375 " clip-rule="nonzero"/></clipPath><clipPath id="32f029f9ee"><rect x="0" width="82" y="0" height="82"/></clipPath></defs><rect x="-81" width="972" fill="#ffffff" y="-80.999999" height="971.999992" fill-opacity="1"/><rect x="-81" width="972" fill="#ffffff" y="-80.999999" height="971.999992" fill-opacity="1"/><g clip-path="url(#8e8ed5a75d)"><g clip-path="url(#349ed87d64)"><g transform="matrix(1, 0, 0, 1, 81, 258)"><g clip-path="url(#7985f8fe4d)"><g clip-path="url(#08f61abaa5)"><g clip-path="url(#1980b91ae6)"><path fill="#e63199" d="M 0 0.8125 L 177.488281 0.8125 L 177.488281 289.925781 L 0 289.925781 Z M 0 0.8125 " fill-opacity="1" fill-rule="nonzero"/></g></g></g></g></g></g><g clip-path="url(#e546063c90)"><g transform="matrix(1, 0, 0, 1, 277, 263)"><g clip-path="url(#907ced947e)"><g clip-path="url(#701e4b662b)"><path fill="#e63199" d="M 0.375 0.613281 L 87.472656 0.613281 L 87.472656 284.355469 L 0.375 284.355469 Z M 0.375 0.613281 " fill-opacity="1" fill-rule="nonzero"/></g></g></g></g><g clip-path="url(#e3dfcebb4f)"><g clip-path="url(#c92824b4e9)"><g transform="matrix(1, 0, 0, 1, 380, 260)"><g clip-path="url(#a2bad43773)"><g clip-path="url(#dda34e81f6)"><g clip-path="url(#95a04903c8)"><rect x="-558.2" width="1166.4" fill="#e63199" height="1166.39999" y="-438.199998" fill-opacity="1"/></g></g></g></g></g></g><g clip-path="url(#238d2d77ba)"><g clip-path="url(#e6ac49e8c0)"><g transform="matrix(1, 0, 0, 1, 640, 466)"><g clip-path="url(#32f029f9ee)"><g clip-path="url(#cb56099fb6)"><g clip-path="url(#6c1c9d77c2)"><rect x="-818.2" width="1166.4" fill="#e63199" height="1166.39999" y="-644.199998" fill-opacity="1"/></g></g></g></g></g></g></svg>